# xmcd CD database file
#
# Track frame offsets:
#	150
#	51649
#	97517
#	120520
#	147833
#	180034
#	207958
#
# Disc length: 3224 seconds
#
# Revision: 0
# Processed by: cddbd v1.5PL3 Copyright (c) Steve Scherf et al.
# Submitted via: CDex 1.50
#
DISCID=530c9607
DTITLE=John Edwards and Mark Sanders - Nisus duets
DYEAR=2002
DGENRE=Jazz
TTITLE0=Pointing
TTITLE1=Painting
TTITLE2=Panting
TTITLE3=Peeling
TTITLE4=Peering
TTITLE5=Pouring
TTITLE6=Parting
EXTD=YEAR: 2002
EXTT0=
EXTT1=
EXTT2=
EXTT3=
EXTT4=
EXTT5=
EXTT6=
PLAYORDER=
